<?xml version="1.0" encoding="iso-8859-1"?>
<!-- Generator: Adobe Illustrator 18.0.0, SVG Export Plug-In . SVG Version: 6.00 Build 0)  -->
<!DOCTYPE svg PUBLIC "-//W3C//DTD SVG 1.1//EN" "http://www.w3.org/Graphics/SVG/1.1/DTD/svg11.dtd">
<svg version="1.1" id="Capa_1" xmlns="http://www.w3.org/2000/svg" xmlns:xlink="http://www.w3.org/1999/xlink" x="0px" y="0px"
	 viewBox="0 0 217.11 217.11" style="enable-background:new 0 0 217.11 217.11;" xml:space="preserve">
	 <defs>
	  <linearGradient id="grad1" x1="0%" y1="20%" x2="100%" y2="0%">
	 	 <stop offset="20%" style="stop-color:rgba(121,0,209,1);stop-opacity:1" />
	 	 <stop offset="100%" style="stop-color:rgba(162,44,255,1);stop-opacity:1" />
	  </linearGradient>
	 </defs>
<path fill="url(#grad1)" d="M108.553,0C62.422,0,24.891,37.537,24.891,83.676c0,32.966,13.802,66.313,39.914,96.436
	c19.502,22.498,38.831,35.245,39.645,35.776c1.247,0.815,2.675,1.222,4.103,1.222c1.428,0,2.857-0.407,4.104-1.222
	c0.813-0.532,20.143-13.278,39.646-35.776c26.113-30.123,39.916-63.47,39.916-96.436C192.219,37.537,154.687,0,108.553,0z
	 M108.547,200.406C93.16,188.975,39.891,144.96,39.891,83.676C39.891,45.808,70.693,15,108.553,15
	c37.862,0,68.666,30.808,68.666,68.676C177.219,144.818,123.926,188.948,108.547,200.406z"/>
<g>
</g>
<g>
</g>
<g>
</g>
<g>
</g>
<g>
</g>
<g>
</g>
<g>
</g>
<g>
</g>
<g>
</g>
<g>
</g>
<g>
</g>
<g>
</g>
<g>
</g>
<g>
</g>
<g>
</g>
</svg>
