<?xml version="1.0" encoding="iso-8859-1"?>
<!-- Generator: Adobe Illustrator 17.1.0, SVG Export Plug-In . SVG Version: 6.00 Build 0)  -->
<!DOCTYPE svg PUBLIC "-//W3C//DTD SVG 1.1//EN" "http://www.w3.org/Graphics/SVG/1.1/DTD/svg11.dtd">
<svg version="1.1" id="Capa_1" xmlns="http://www.w3.org/2000/svg" xmlns:xlink="http://www.w3.org/1999/xlink" x="0px" y="0px"
	 viewBox="0 0 502.745 502.745" style="enable-background:new 0 0 502.745 502.745;" xml:space="preserve">
<g>
	<path d="M497.605,231.935C448.218,145.541,353.867,91.872,251.372,91.872S54.528,145.541,5.141,231.935
		c-6.854,11.989-6.854,26.886,0,38.875c49.387,86.394,143.738,140.063,246.232,140.063s196.845-53.669,246.232-140.063
		C504.458,258.821,504.458,243.924,497.605,231.935z M484.582,263.366c-46.723,81.733-136.084,132.507-233.21,132.507
		c-97.125,0-186.486-50.773-233.209-132.507c-4.229-7.397-4.229-16.589,0-23.986c46.723-81.733,136.084-132.507,233.209-132.507
		c97.126,0,186.487,50.773,233.21,132.506C488.811,246.777,488.811,255.968,484.582,263.366z"/>
	<path d="M251.372,139.872c-61.481,0-111.5,50.019-111.5,111.5s50.019,111.5,111.5,111.5s111.5-50.019,111.5-111.5
		S312.854,139.872,251.372,139.872z M251.372,347.872c-53.21,0-96.5-43.29-96.5-96.5s43.29-96.5,96.5-96.5s96.5,43.29,96.5,96.5
		S304.583,347.872,251.372,347.872z"/>
	<path d="M298.757,220.586c-3.741,1.778-5.332,6.253-3.553,9.994c3.098,6.516,4.668,13.512,4.668,20.792
		c0,26.743-21.757,48.5-48.5,48.5s-48.5-21.757-48.5-48.5s21.757-48.5,48.5-48.5c7.279,0,14.274,1.57,20.791,4.667
		c3.742,1.779,8.216,0.187,9.994-3.554s0.187-8.215-3.554-9.993c-8.544-4.061-17.706-6.12-27.23-6.12
		c-35.014,0-63.5,28.486-63.5,63.5s28.486,63.5,63.5,63.5s63.5-28.486,63.5-63.5c0-9.526-2.06-18.688-6.122-27.233
		C306.973,220.399,302.5,218.807,298.757,220.586z"/>
</g>
<g>
</g>
<g>
</g>
<g>
</g>
<g>
</g>
<g>
</g>
<g>
</g>
<g>
</g>
<g>
</g>
<g>
</g>
<g>
</g>
<g>
</g>
<g>
</g>
<g>
</g>
<g>
</g>
<g>
</g>
</svg>
